PathFileType	4	(X/Y/Z)	output.trc
DataRate	CameraRate	NumFrames	NumMarkers	Units	OrigDataRate	OrigDataStartFrame	OrigNumFrames
120	120	6	18	mm	120	1	1
Frame#	Time	K4ABT_JOINT_PELVISx			K4ABT_JOINT_SPINE_NAVEL			T8			C7			K4ABT_JOINT_CLAVICLE_LEFT			K4ABT_JOINT_SHOULDER_LEFT			K4ABT_JOINT_ELBOW_LEFT			K4ABT_JOINT_WRIST_LEFT			K4ABT_JOINT_HAND_LEFT			K4ABT_JOINT_HANDTIP_LEFT			K4ABT_JOINT_THUMB_LEFT			K4ABT_JOINT_CLAVICLE_RIGHT			GH			Elbow_Midpoint			Wrist_Midpointx			K4ABT_JOINT_HAND_RIGHT			K4ABT_JOINT_HANDTIP_RIGHT			K4ABT_JOINT_THUMB_RIGHTx
		X1	Y1	Z1	X2	Y2	Z2	X3	Y3	Z3	X4	Y4	Z4	X5	Y5	Z5	X6	Y6	Z6	X7	Y7	Z7	X8	Y8	Z8	X9	Y9	Z9	X10	Y10	Z10	X11	Y11	Z11	X12	Y12	Z12	X13	Y13	Z13	X14	Y14	Z14	X15	Y15	Z15	X16	Y16	Z16	X17	Y17	Z17	X18	Y18	Z18
1	9.235222	-243.502385	-247.370225	1513.810954	267.370678	-93.867262	1498.631088	293.958279	27.553489	1487.621360	294.933222	213.992946	1451.306888	294.392553	189.085005	1486.210554	302.456815	199.880130	1610.551810	77.936803	167.039476	1694.014879	117.207167	292.371077	1539.331232	123.457779	357.525699	1486.290540	104.941575	427.472610	1425.447984	126.482070	362.169616	1452.939579	296.982358	177.314127	1428.579525	299.663902	122.844702	1327.266160	303.343011	-123.450680	1330.665867	205.105822	-303.224894	1346.695294	196.445115	-390.647114	1369.293825	173.934829	-480.802288	1369.630743	152.407849	-388.547514	1397.799715
2	9.243521	-243.451680	-247.372740	1513.793809	267.386363	-93.874568	1498.621641	294.004674	27.543727	1487.614226	294.943631	213.988407	1451.293835	294.408619	189.080455	1486.199280	302.474950	199.884832	1610.543672	77.968698	167.063061	1694.073148	117.236361	292.356682	1539.349661	123.613592	357.376243	1486.166939	105.232021	427.265981	1425.219803	126.439926	362.142621	1452.916935	296.999061	177.308222	1428.566600	299.641859	122.855455	1327.239268	303.361284	-123.446770	1330.668977	205.186487	-303.254442	1346.781397	196.431403	-390.656045	1369.428617	173.689521	-480.743810	1369.926467	152.510992	-388.443268	1397.691974
3	9.251820	-243.400975	-247.375255	1513.776664	267.402049	-93.881875	1498.612194	294.051068	27.533966	1487.607093	294.954039	213.983867	1451.280782	294.424685	189.075905	1486.188005	302.493084	199.889535	1610.535534	78.000593	167.086645	1694.131418	117.265554	292.342288	1539.368090	123.769405	357.226787	1486.043337	105.522467	427.059352	1424.991622	126.397781	362.115625	1452.894290	297.015764	177.302316	1428.553675	299.619816	122.866208	1327.212376	303.379557	-123.442860	1330.672088	205.267151	-303.283989	1346.867500	196.417690	-390.664975	1369.563409	173.444214	-480.685331	1370.222191	152.614135	-388.339022	1397.584233
4	9.260119	-243.350270	-247.377771	1513.759519	267.417734	-93.889181	1498.602747	294.097463	27.524205	1487.599959	294.964447	213.979327	1451.267729	294.440751	189.071354	1486.176731	302.511219	199.894238	1610.527396	78.032488	167.110230	1694.189687	117.294748	292.327893	1539.386519	123.925219	357.077330	1485.919736	105.812913	426.852723	1424.763441	126.355636	362.088629	1452.871646	297.032466	177.296410	1428.540750	299.597773	122.876961	1327.185484	303.397831	-123.438950	1330.675198	205.347816	-303.313536	1346.953603	196.403978	-390.673905	1369.698200	173.198906	-480.626853	1370.517914	152.717278	-388.234777	1397.476493
5	9.268418	-243.299565	-247.380286	1513.742374	267.433420	-93.896488	1498.593300	294.143857	27.514444	1487.592825	294.974855	213.974788	1451.254675	294.456816	189.066804	1486.165457	302.529353	199.898941	1610.519258	78.064383	167.133815	1694.247956	117.323942	292.313498	1539.404948	124.081032	356.927874	1485.796135	106.103359	426.646094	1424.535261	126.313491	362.061633	1452.849002	297.049169	177.290504	1428.527825	299.575730	122.887715	1327.158592	303.416104	-123.435040	1330.678309	205.428480	-303.343084	1347.039706	196.390266	-390.682835	1369.832992	172.953598	-480.568374	1370.813638	152.820421	-388.130531	1397.368752
6	9.276716	-243.208449	-247.374722	1513.533050	267.446088	-93.869626	1498.453974	294.380401	27.522584	1487.557601	294.904737	213.998117	1451.118370	294.432146	189.102691	1486.048593	302.502615	200.039643	1610.417500	78.175395	167.086848	1694.556478	117.454110	292.227370	1539.634324	124.700528	356.435348	1485.616009	107.429407	426.361500	1424.447164	125.791660	361.792625	1452.988410	297.035252	177.299308	1428.405197	299.515242	122.902641	1327.006026	303.404347	-123.466984	1330.594738	205.696316	-303.558724	1347.076162	196.194467	-390.794678	1370.084383	172.266861	-480.514784	1371.827784	153.058783	-387.956904	1396.992992
